<svg width="18" height="21" viewBox="4 0 18 21" fill="none" xmlns="http://www.w3.org/2000/svg">
    <path fill-rule="evenodd" clip-rule="evenodd" d="M13.5 5.78817C15.4938 3.91786 20.4776 7.19255 13.5 11.4017C6.52237 7.19255 11.5062 3.91917 13.5 5.7908V5.78817Z" fill="#8D4337"/>
    <path d="M4.875 2.625C4.875 1.92881 5.1779 1.26113 5.71707 0.768845C6.25623 0.276562 6.9875 0 7.75 0L19.25 0C20.0125 0 20.7438 0.276562 21.2829 0.768845C21.8221 1.26113 22.125 1.92881 22.125 2.625V20.3438C22.1249 20.4625 22.0896 20.5789 22.0228 20.6807C21.9559 20.7826 21.8601 20.8659 21.7455 20.922C21.6309 20.978 21.5018 21.0046 21.3719 20.9989C21.242 20.9932 21.1163 20.9555 21.0081 20.8898L13.5 17.1951L5.99194 20.8898C5.8837 20.9555 5.75796 20.9932 5.62809 20.9989C5.49823 21.0046 5.36912 20.978 5.2545 20.922C5.13988 20.8659 5.04406 20.7826 4.97723 20.6807C4.9104 20.5789 4.87507 20.4625 4.875 20.3438V2.625ZM7.75 1.3125C7.36875 1.3125 7.00312 1.45078 6.73353 1.69692C6.46395 1.94306 6.3125 2.2769 6.3125 2.625V19.1179L13.1018 15.8602C13.2198 15.7886 13.3583 15.7503 13.5 15.7503C13.6417 15.7503 13.7802 15.7886 13.8982 15.8602L20.6875 19.1179V2.625C20.6875 2.2769 20.536 1.94306 20.2665 1.69692C19.9969 1.45078 19.6312 1.3125 19.25 1.3125H7.75Z" fill="#8D4337"/>
</svg>
